<?xml version="1.0" encoding="utf-8"?><svg xml:space="preserve" viewBox="0 0 100 100" y="0" x="0" xmlns="http://www.w3.org/2000/svg" id="圖層_1" version="1.1" width="200px" height="200px" xmlns:xlink="http://www.w3.org/1999/xlink" style="width:100%;height:100%;background-size:initial;background-repeat-y:initial;background-repeat-x:initial;background-position-y:initial;background-position-x:initial;background-origin:initial;background-image:initial;background-color:rgb(255, 255, 255);background-clip:initial;background-attachment:initial;animation-play-state:paused" ><g class="ldl-scale" style="transform-origin:50% 50%;transform:rotate(0deg) scale(0.8, 0.8);animation-play-state:paused" ><path stroke-miterlimit="10" stroke-width="3.5" stroke="#333" fill="#77a4bd" d="M44.8 81.7c-9.6 9.6-21.8 9.8-29.1 2.6s-7-19.5 2.6-29.1L36.9 37 63 63.1 44.8 81.7z" style="stroke:rgb(51, 51, 51);fill:rgb(119, 164, 189);animation-play-state:paused" ></path>
<path stroke-miterlimit="10" stroke-width="3.5" stroke="#333" fill="#e0e0e0" d="M84.2 15.8c7.2 7.2 7 19.5-2.6 29.1L63.1 63.1 36.9 36.9l18.2-18.6c9.7-9.6 21.9-9.8 29.1-2.5z" style="stroke:rgb(51, 51, 51);fill:rgb(224, 224, 224);animation-play-state:paused" ></path>
<path stroke-miterlimit="10" stroke-width="3.5" stroke="#fff" fill="none" stroke-linecap="round" d="M66.8 17.6c2.3-.8 4.7-1.3 6.9-1.3" style="stroke:rgb(255, 255, 255);animation-play-state:paused" ></path>
<path stroke-miterlimit="10" stroke-width="3.5" stroke="#fff" fill="none" stroke-linecap="round" d="M60.7 20.9c.3-.2.6-.5 1-.7" style="stroke:rgb(255, 255, 255);animation-play-state:paused" ></path>
<path stroke-miterlimit="10" stroke-width="3.5" stroke="#000" opacity=".11" d="M81.7 44.8L63.1 63.1 44.8 81.7c-9.6 9.6-21.8 9.8-29.1 2.6l68.5-68.5c7.3 7.2 7.1 19.4-2.5 29z" style="animation-play-state:paused" ></path>
<path d="M26.8 54.9l-.7.7" stroke-miterlimit="10" stroke-width="3.5" stroke="#fff" fill="none" stroke-linecap="round" style="stroke:rgb(255, 255, 255);animation-play-state:paused" ></path>
<path d="M36 45.7l-5 5" stroke-miterlimit="10" stroke-width="3.5" stroke="#fff" fill="none" stroke-linecap="round" style="stroke:rgb(255, 255, 255);animation-play-state:paused" ></path>
<metadata xmlns:d="https://loading.io/stock/" style="animation-play-state:paused" ><d:name style="animation-play-state:paused" >drug</d:name>
<d:tags style="animation-play-state:paused" >drug,pill,cure,remedy,pharmacy,treatment,medicine</d:tags>
<d:license style="animation-play-state:paused" >by</d:license>
<d:slug style="animation-play-state:paused" >fe50b</d:slug></metadata></g><!-- generated by https://loading.io/ --></svg>